<?xml version="1.0" encoding="UTF-8"?>
<svg id="Layer_1" data-name="Layer 1" xmlns="http://www.w3.org/2000/svg" viewBox="0 0 512 512">
  <defs>
    <style>
      .cls-1 {
        fill: #ff4d00;
      }

      .cls-2 {
        fill: #fff;
      }
    </style>
  </defs>
  <rect class="cls-1" x="0" y="0" width="512" height="512" rx="163.7" ry="163.7"/>
  <g>
    <path class="cls-2" d="M198.11,274.13v-86.08c0-10.92,8.85-19.76,19.76-19.76h17.31c17.19,0,31.65,3.05,43.39,9.13.78.41,1.55.83,2.3,1.26,7.78,4.49,17.6,3.28,23.95-3.08l9.39-9.39c9.24-9.24,7.19-24.86-4.25-31.18-.08-.04-.15-.08-.23-.13-19.97-10.97-43.79-16.45-71.46-16.45h-78.56c-10.92,0-19.76,8.85-19.76,19.76v154.55c0,17.61,21.29,26.43,33.74,13.98l18.63-18.63c3.71-3.71,5.79-8.73,5.79-13.98Z"/>
    <path class="cls-2" d="M355.87,329.61c10.79-20.6,16.19-45.22,16.19-73.88,0-14.01-1.3-27.05-3.9-39.12-3.29-15.26-22.24-20.76-33.28-9.72l-15.94,15.94c-4.16,4.16-6.27,9.96-5.7,15.82.53,5.37.79,11.06.79,17.09,0,20.51-2.98,37.23-8.93,50.17-5.96,12.94-14.82,22.48-26.6,28.61-11.78,6.13-26.26,9.2-43.46,9.2h-36.94v-.06l-16.15,16.15c-12.45,12.45-3.63,33.74,13.98,33.74h41.54c27.94,0,51.96-5.51,72.07-16.52,20.1-11.01,35.55-26.82,46.34-47.42Z"/>
  </g>
</svg>